<?xml version="1.0" encoding="UTF-8" standalone="no"?>
<!-- Created with Inkscape (http://www.inkscape.org/) -->

<svg
   xmlns:dc="http://purl.org/dc/elements/1.1/"
   xmlns:cc="http://creativecommons.org/ns#"
   xmlns:rdf="http://www.w3.org/1999/02/22-rdf-syntax-ns#"
   xmlns:svg="http://www.w3.org/2000/svg"
   xmlns="http://www.w3.org/2000/svg"
   xmlns:xlink="http://www.w3.org/1999/xlink"
   xmlns:sodipodi="http://sodipodi.sourceforge.net/DTD/sodipodi-0.dtd"
   xmlns:inkscape="http://www.inkscape.org/namespaces/inkscape"
   id="svg3004"
   version="1.1"
   inkscape:version="0.48.5 r10040"
   width="128"
   height="128"
   xml:space="preserve"
   sodipodi:docname="icon_dl.svg"
   inkscape:export-filename="/opt/go/src/github.com/alex2108/syncthing-tray/img/icon_ul_dl.png"
   inkscape:export-xdpi="22.5"
   inkscape:export-ydpi="22.5"><sodipodi:namedview
     pagecolor="#ffffff"
     bordercolor="#666666"
     borderopacity="1"
     objecttolerance="10"
     gridtolerance="10"
     guidetolerance="10"
     inkscape:pageopacity="0"
     inkscape:pageshadow="2"
     inkscape:window-width="1916"
     inkscape:window-height="1177"
     id="namedview3006"
     showgrid="true"
     fit-margin-top="0"
     fit-margin-left="0"
     fit-margin-right="0"
     fit-margin-bottom="0"
     inkscape:zoom="2"
     inkscape:cx="34.598075"
     inkscape:cy="137.6842"
     inkscape:window-x="0"
     inkscape:window-y="19"
     inkscape:window-maximized="0"
     inkscape:current-layer="g3012"
     inkscape:snap-global="true"
     showguides="true"
     inkscape:guide-bbox="true"
     inkscape:snap-grids="false"><inkscape:grid
       type="xygrid"
       id="grid3010"
       empspacing="5"
       visible="true"
       enabled="true"
       snapvisiblegridlinesonly="true" /></sodipodi:namedview><metadata
     id="metadata3010"><rdf:RDF><cc:Work
         rdf:about=""><dc:format>image/svg+xml</dc:format><dc:type
           rdf:resource="http://purl.org/dc/dcmitype/StillImage" /><dc:title></dc:title></cc:Work></rdf:RDF></metadata><defs
     id="defs3008"><marker
       inkscape:stockid="Arrow2Mend"
       orient="auto"
       refY="0.0"
       refX="0.0"
       id="Arrow2Mend"
       style="overflow:visible;"><path
         id="path3992"
         style="fill-rule:evenodd;stroke-width:0.62500000;stroke-linejoin:round;"
         d="M 8.7185878,4.0337352 L -2.2072895,0.016013256 L 8.7185884,-4.0017078 C 6.9730900,-1.6296469 6.9831476,1.6157441 8.7185878,4.0337352 z "
         transform="scale(0.6) rotate(180) translate(0,0)" /></marker><marker
       inkscape:stockid="Arrow1Lstart"
       orient="auto"
       refY="0.0"
       refX="0.0"
       id="Arrow1Lstart"
       style="overflow:visible"><path
         id="path3965"
         d="M 0.0,0.0 L 5.0,-5.0 L -12.5,0.0 L 5.0,5.0 L 0.0,0.0 z "
         style="fill-rule:evenodd;stroke:#000000;stroke-width:1.0pt"
         transform="scale(0.8) translate(12.5,0)" /></marker><clipPath
       clipPathUnits="userSpaceOnUse"
       id="clipPath3018"><path
         d="M 58.666,117.332 C 26.266,117.332 0,91.066 0,58.666 l 0,0 C 0,26.266 26.266,0 58.666,0 l 0,0 c 32.399,0 58.666,26.266 58.666,58.666 l 0,0 c 0,32.4 -26.267,58.666 -58.666,58.666 z"
         id="path3020"
         inkscape:connector-curvature="0" /></clipPath><linearGradient
       x1="0"
       y1="0"
       x2="1"
       y2="0"
       gradientUnits="userSpaceOnUse"
       gradientTransform="matrix(-5.1e-6,117.33154,117.33154,5.1e-6,58.666016,0)"
       spreadMethod="pad"
       id="linearGradient3026"><stop
         style="stop-opacity:1;stop-color:#0882c8"
         offset="0"
         id="stop3028" /><stop
         style="stop-opacity:1;stop-color:#26b6db"
         offset="1"
         id="stop3030" /></linearGradient><clipPath
       clipPathUnits="userSpaceOnUse"
       id="clipPath3038"><path
         d="m 0,117.332 429.019,0 L 429.019,0 0,0 0,117.332 z"
         id="path3040"
         inkscape:connector-curvature="0" /></clipPath><marker
       inkscape:stockid="Arrow2MendA"
       orient="auto"
       refY="0.0"
       refX="0.0"
       id="Arrow2MendA"
       style="overflow:visible;"><path
         id="path4788"
         style="stroke-linejoin:round;stroke:#ffffff;stroke-width:0.62500000;fill:#ffffff;fill-rule:evenodd"
         d="M 8.7185878,4.0337352 L -2.2072895,0.016013256 L 8.7185884,-4.0017078 C 6.9730900,-1.6296469 6.9831476,1.6157441 8.7185878,4.0337352 z "
         transform="scale(0.6) rotate(180) translate(0,0)" /></marker><marker
       inkscape:stockid="Arrow2MendAf"
       orient="auto"
       refY="0.0"
       refX="0.0"
       id="Arrow2MendAf"
       style="overflow:visible;"><path
         id="path4873"
         style="stroke-linejoin:round;fill-rule:evenodd;stroke:#000000;stroke-width:0.62500000;fill:#000000"
         d="M 8.7185878,4.0337352 L -2.2072895,0.016013256 L 8.7185884,-4.0017078 C 6.9730900,-1.6296469 6.9831476,1.6157441 8.7185878,4.0337352 z "
         transform="scale(0.6) rotate(180) translate(0,0)" /></marker><marker
       inkscape:stockid="Arrow2MendAf"
       orient="auto"
       refY="0"
       refX="0"
       id="Arrow2MendAf-4"
       style="overflow:visible"><path
         inkscape:connector-curvature="0"
         id="path4873-4"
         style="fill:#000000;fill-rule:evenodd;stroke:#000000;stroke-width:0.625;stroke-linejoin:round"
         d="M 8.7185878,4.0337352 -2.2072895,0.01601326 8.7185884,-4.0017078 c -1.7454984,2.3720609 -1.7354408,5.6174519 -6e-7,8.035443 z"
         transform="scale(-0.6,-0.6)" /></marker><linearGradient
       x1="-155.74"
       y1="558.8"
       gradientTransform="matrix(0,-1.6732,1.1476,0,-269.01,-124.96)"
       x2="-171.94"
       gradientUnits="userSpaceOnUse"
       y2="541.27"
       id="linearGradient7614"><stop
         offset="0"
         style="stop-color:#00ff00;stop-opacity:1;"
         id="stop11464" /><stop
         offset="1"
         style="stop-color:#8dff37;stop-opacity:1;"
         id="stop11466" /></linearGradient><linearGradient
       inkscape:collect="always"
       x1="-155.74"
       y1="558.8"
       gradientTransform="matrix(0,-1.6732,1.1476,0,-269.01,-183.5)"
       x2="-171.94"
       gradientUnits="userSpaceOnUse"
       y2="541.27"
       id="linearGradient7084"><stop
         offset="0"
         style="stop-color:#ff2a26"
         id="stop7092" /><stop
         offset="1"
         style="stop-color:#96000d"
         id="stop7094" /></linearGradient><linearGradient
       inkscape:collect="always"
       xlink:href="#linearGradient7614"
       id="linearGradient3978"
       gradientUnits="userSpaceOnUse"
       gradientTransform="matrix(0,-3.1556534,-1.2948321,0,783.77886,-449.42788)"
       x1="-155.74001"
       y1="558.79999"
       x2="-171.94"
       y2="541.27002" /><linearGradient
       inkscape:collect="always"
       xlink:href="#linearGradient7084"
       id="linearGradient4358"
       gradientUnits="userSpaceOnUse"
       gradientTransform="matrix(0,3.1502278,1.2996365,0,-682.32921,586.40486)"
       x1="-155.74"
       y1="558.8"
       x2="-171.94"
       y2="541.27" /></defs><g
     id="g3012"
     inkscape:groupmode="layer"
     inkscape:label="logo"
     transform="matrix(1.25,0,0,-1.25,0,146.665)"><g
       id="g3014"
       transform="matrix(0.87273719,0,0,0.87273719,0,14.932)"><g
         id="g3016"
         clip-path="url(#clipPath3018)"><g
           id="g3022"><g
             id="g3024"><path
               d="M 58.666,117.332 C 26.266,117.332 0,91.066 0,58.666 l 0,0 C 0,26.266 26.266,0 58.666,0 l 0,0 c 32.399,0 58.666,26.266 58.666,58.666 l 0,0 c 0,32.4 -26.267,58.666 -58.666,58.666 z"
               style="fill:url(#linearGradient3026);stroke:none"
               id="path3032"
               inkscape:connector-curvature="0" /></g></g></g></g><g
       id="g3042"
       transform="matrix(0.87273719,0,0,0.87273719,89.308943,66.317805)"><path
         d="m 0,0 c 0,24.117 -19.551,43.666 -43.666,43.666 -24.117,0 -43.666,-19.549 -43.666,-43.666 0,-24.115 19.549,-43.666 43.666,-43.666 C -19.551,-43.666 0,-24.115 0,0 z"
         style="fill:none;stroke:#ffffff;stroke-width:6;stroke-linecap:butt;stroke-linejoin:miter;stroke-miterlimit:10;stroke-opacity:1;stroke-dasharray:none"
         id="path3044"
         inkscape:connector-curvature="0" /></g><g
       id="g3046"
       transform="matrix(0.87273719,0,0,0.87273719,82.618537,75.575278)"><path
         d="M 0,0 C 4.695,-1.625 9.82,0.865 11.447,5.562 13.072,10.256 10.578,15.385 5.883,17.008 1.187,18.635 -3.939,16.143 -5.564,11.445 -7.187,6.748 -4.697,1.623 0,0"
         style="fill:#ffffff;fill-opacity:1;fill-rule:nonzero;stroke:none"
         id="path3048"
         inkscape:connector-curvature="0" /></g><g
       id="g3050"
       transform="matrix(0.87273719,0,0,0.87273719,85.165184,82.986737)"><path
         d="M 0,0 -30.071,-25.042"
         style="fill:none;stroke:#ffffff;stroke-width:6;stroke-linecap:butt;stroke-linejoin:miter;stroke-miterlimit:10;stroke-opacity:1;stroke-dasharray:none"
         id="path3052"
         inkscape:connector-curvature="0" /></g><g
       id="g3054"
       transform="matrix(0.87273719,0,0,0.87273719,67.710441,37.93168)"><path
         d="m 0,0 c -0.445,-4.949 3.213,-9.32 8.158,-9.766 4.951,-0.443 9.326,3.213 9.768,8.162 0.443,4.948 -3.211,9.321 -8.16,9.766 C 4.814,8.604 0.441,4.951 0,0"
         style="fill:#ffffff;fill-opacity:1;fill-rule:nonzero;stroke:none"
         id="path3056"
         inkscape:connector-curvature="0" /></g><g
       id="g3058"
       transform="matrix(0.87273719,0,0,0.87273719,75.517336,37.248151)"><path
         d="M 0,0 -19.017,27.366"
         style="fill:none;stroke:#ffffff;stroke-width:6;stroke-linecap:butt;stroke-linejoin:miter;stroke-miterlimit:10;stroke-opacity:1;stroke-dasharray:none"
         id="path3060"
         inkscape:connector-curvature="0" /></g><g
       id="g3062"
       transform="matrix(0.87273719,0,0,0.87273719,52.328447,56.86257)"><path
         d="M 0,0 C 2.697,-4.17 8.27,-5.363 12.443,-2.664 16.615,0.033 17.809,5.609 15.107,9.779 12.408,13.953 6.834,15.146 2.662,12.445 -1.508,9.744 -2.703,4.172 0,0"
         style="fill:#ffffff;fill-opacity:1;fill-rule:nonzero;stroke:none"
         id="path3064"
         inkscape:connector-curvature="0" /></g><g
       id="g3066"
       transform="matrix(0.87273719,0,0,0.87273719,18.462146,63.735376)"><path
         d="m 0,0 c -4.266,2.541 -9.789,1.146 -12.338,-3.123 -2.541,-4.268 -1.148,-9.793 3.123,-12.336 4.268,-2.549 9.795,-1.148 12.338,3.123 C 5.668,-8.066 4.271,-2.543 0,0"
         style="fill:#ffffff;fill-opacity:1;fill-rule:nonzero;stroke:none"
         id="path3068"
         inkscape:connector-curvature="0" /></g><g
       id="g3070"
       transform="matrix(0.87273719,0,0,0.87273719,14.461518,56.995576)"><path
         d="M 0,0 50.942,4.739"
         style="fill:none;stroke:#ffffff;stroke-width:6;stroke-linecap:butt;stroke-linejoin:miter;stroke-miterlimit:10;stroke-opacity:1;stroke-dasharray:none"
         id="path3072"
         inkscape:connector-curvature="0" /></g><path
       inkscape:connector-curvature="0"
       id="path10093"
       sodipodi:nodetypes="cccccccc"
       style="color:#000000;fill:url(#linearGradient4358);stroke:#000000;stroke-width:4;stroke-linejoin:round;stroke-miterlimit:4;stroke-opacity:1;stroke-dasharray:none"
       d="m 11.956926,75.539649 11.38611,0 0,-39.351489 17.326977,0 0,39.351489 11.335883,0 -19.999372,26.110061 z" /></g></svg>